<?xml version="1.0" encoding="iso-8859-1"?>
<!-- Generator: Adobe Illustrator 18.1.1, SVG Export Plug-In . SVG Version: 6.00 Build 0)  -->
<svg version="1.1" id="Capa_1" xmlns="http://www.w3.org/2000/svg" xmlns:xlink="http://www.w3.org/1999/xlink" x="0px" y="0px"
	 viewBox="0 0 30.725 30.725" style="enable-background:new 0 0 30.725 30.725;" xml:space="preserve">
<g>
	<path d="M30.718,26.476l0.006-19.877c0-0.611-0.497-1.107-1.107-1.107H15.598c-0.435-0.01-0.773-0.807-0.773-1.111V4.254
		c-0.001-0.651-0.525-1.182-1.177-1.182h-7.46c-0.651,0-1.18,0.531-1.18,1.182v0.127c0,0.309-0.342,1.115-0.783,1.115h0.014
		C3.632,5.508,3.145,5.998,3.145,6.601l0.004,5.756H0.764c0,0-1.056-0.057-0.685,1.199l2.518,12.92c0,0.65,0.453,1.176,1.104,1.176
		h26.474C30.825,27.652,30.718,26.476,30.718,26.476z M29.358,14.023l-0.011,12.973l-2.502-13.908
		c-0.213-0.766-1.078-0.711-1.078-0.711H4.512V7.963h24.847v6.06H29.358z M20.003,20.302c0.136-0.098,0.325-0.498,0.495-0.852
		c0.305-0.639,0.592-1.242,0.985-1.248l0.007,0.002c0.399,0,0.68,0.609,0.984,1.258c0.162,0.354,0.349,0.756,0.481,0.854
		c0.137,0.098,0.576,0.154,0.965,0.207c0.705,0.092,1.372,0.18,1.493,0.559s-0.371,0.836-0.895,1.322
		c-0.287,0.266-0.609,0.568-0.665,0.727c-0.049,0.154,0.031,0.592,0.1,0.975c0.133,0.701,0.254,1.365-0.068,1.596
		c-0.07,0.053-0.157,0.076-0.261,0.078c-0.327,0.008-0.806-0.26-1.272-0.521c-0.342-0.189-0.729-0.402-0.894-0.406
		c-0.173,0.006-0.559,0.215-0.898,0.4c-0.456,0.246-0.924,0.502-1.253,0.508c-0.112,0-0.21-0.025-0.284-0.084
		c-0.323-0.234-0.19-0.896-0.056-1.596c0.077-0.381,0.161-0.816,0.108-0.975c-0.049-0.156-0.372-0.463-0.656-0.73
		c-0.515-0.49-1.002-0.957-0.879-1.334c0.126-0.375,0.795-0.455,1.501-0.541C19.43,20.453,19.869,20.396,20.003,20.302z"/>
	<g>
	</g>
	<g>
	</g>
	<g>
	</g>
	<g>
	</g>
	<g>
	</g>
	<g>
	</g>
	<g>
	</g>
	<g>
	</g>
	<g>
	</g>
	<g>
	</g>
	<g>
	</g>
	<g>
	</g>
	<g>
	</g>
	<g>
	</g>
	<g>
	</g>
</g>
<g>
</g>
<g>
</g>
<g>
</g>
<g>
</g>
<g>
</g>
<g>
</g>
<g>
</g>
<g>
</g>
<g>
</g>
<g>
</g>
<g>
</g>
<g>
</g>
<g>
</g>
<g>
</g>
<g>
</g>
</svg>
